<?xml version="1.0" encoding="UTF-8" standalone="no"?>
<!DOCTYPE svg PUBLIC "-//W3C//DTD SVG 1.1//EN" "http://www.w3.org/Graphics/SVG/1.1/DTD/svg11.dtd">
<svg version="1.1" xmlns="http://www.w3.org/2000/svg" xmlns:xlink="http://www.w3.org/1999/xlink" preserveAspectRatio="xMidYMid meet" viewBox="0 0 640 640" width="640" height="640"><defs><path d="M358.74 304.97C358.74 313.25 352.02 319.97 343.74 319.97C335.46 319.97 328.74 313.25 328.74 304.97C328.74 296.69 335.46 289.97 343.74 289.97C352.02 289.97 358.74 296.69 358.74 304.97Z" id="a1vGounPM6"></path><path d="M413.24 250.47C413.24 258.75 406.52 265.47 398.24 265.47C389.96 265.47 383.24 258.75 383.24 250.47C383.24 242.19 389.96 235.47 398.24 235.47C406.52 235.47 413.24 242.19 413.24 250.47Z" id="c347x3doX3"></path><path d="M413.24 304.97C413.24 313.25 406.52 319.97 398.24 319.97C389.96 319.97 383.24 313.25 383.24 304.97C383.24 296.69 389.96 289.97 398.24 289.97C406.52 289.97 413.24 296.69 413.24 304.97Z" id="a3tMsE7PD"></path><path d="M358.74 250.47C358.74 258.75 352.02 265.47 343.74 265.47C335.46 265.47 328.74 258.75 328.74 250.47C328.74 242.19 335.46 235.47 343.74 235.47C352.02 235.47 358.74 242.19 358.74 250.47Z" id="b3oUggxjd"></path><path d="M302.74 380.47C302.74 395.92 290.2 408.47 274.74 408.47C259.29 408.47 246.74 395.92 246.74 380.47C246.74 365.01 259.29 352.47 274.74 352.47C290.2 352.47 302.74 365.01 302.74 380.47Z" id="dJL8Ai7Mo"></path><path d="M423.88 135.42C415.75 125.02 400.3 124.21 391.13 133.7C337.55 189.11 192.53 339.09 138.54 394.93C130.13 403.63 130.46 417.52 139.27 425.82C154.34 440 172.13 456.75 184.36 468.25C203.33 486.11 229.82 493.61 255.35 488.35C264.67 486.43 256.43 488.13 266.88 485.98C289.76 481.26 310.68 469.77 326.93 452.99C355.6 423.39 418.66 358.27 447.83 328.15C462.53 312.98 473.07 294.28 478.45 273.85C481.15 263.58 478.62 273.2 480.71 265.25C487.8 238.32 481.89 209.63 464.74 187.69C453.49 173.3 437.49 152.84 423.88 135.42Z" id="e7MzRgOnv"></path></defs><g><g><g><use xlink:href="#a1vGounPM6" opacity="1" fill="#6f7778" fill-opacity="1"></use></g><g><use xlink:href="#c347x3doX3" opacity="1" fill="#6f7778" fill-opacity="1"></use></g><g><use xlink:href="#a3tMsE7PD" opacity="1" fill="#6f7778" fill-opacity="1"></use></g><g><use xlink:href="#b3oUggxjd" opacity="1" fill="#6f7778" fill-opacity="1"></use></g><g><use xlink:href="#dJL8Ai7Mo" opacity="1" fill="#6f7778" fill-opacity="1"></use></g><g><g><use xlink:href="#e7MzRgOnv" opacity="1" fill-opacity="0" stroke="#6f7778" stroke-width="35" stroke-opacity="1"></use></g></g></g></g></svg>