<?xml version="1.0" encoding="UTF-8" standalone="no"?>
<!DOCTYPE svg PUBLIC "-//W3C//DTD SVG 1.1//EN" "http://www.w3.org/Graphics/SVG/1.1/DTD/svg11.dtd">
<svg version="1.1" xmlns="http://www.w3.org/2000/svg" xmlns:xlink="http://www.w3.org/1999/xlink" preserveAspectRatio="xMidYMid meet" viewBox="0 0 640 640" width="640" height="640"><defs><path d="M465 428.48L426.52 390" id="eBvjRalMq"></path><path d="" id="cHxlrlpGf"></path><path d="M223.48 380.76L185 419.24" id="e2a49UlAAg"></path><path d="M463.48 170L425 208.48" id="d1QLnQbkRx"></path><path d="M505 300L450.59 300" id="ci319cdV"></path><path d="M189.41 300L135 300" id="g1zLTKhGR"></path><path d="M325 484.41L325 430" id="dgVLImtYW"></path><path d="M325 170L325 115.59" id="c501oMkOm"></path><path d="M450 300C450 368.99 393.99 425 325 425C256.01 425 200 368.99 200 300C200 231.01 256.01 175 325 175C393.99 175 450 231.01 450 300Z" id="h235Gy1By0"></path><path d="M225 210L186.52 171.52" id="i4NNsr8pRf"></path></defs><g><g><g><g><use xlink:href="#eBvjRalMq" opacity="1" fill-opacity="0" stroke="#6f7778" stroke-width="35" stroke-opacity="1"></use></g></g><g><g><use xlink:href="#cHxlrlpGf" opacity="1" fill-opacity="0" stroke="#6f7778" stroke-width="35" stroke-opacity="1"></use></g></g><g><g><use xlink:href="#e2a49UlAAg" opacity="1" fill-opacity="0" stroke="#6f7778" stroke-width="35" stroke-opacity="1"></use></g></g><g><g><use xlink:href="#d1QLnQbkRx" opacity="1" fill-opacity="0" stroke="#6f7778" stroke-width="35" stroke-opacity="1"></use></g></g><g><g><use xlink:href="#ci319cdV" opacity="1" fill-opacity="0" stroke="#6f7778" stroke-width="35" stroke-opacity="1"></use></g></g><g><g><use xlink:href="#g1zLTKhGR" opacity="1" fill-opacity="0" stroke="#6f7778" stroke-width="35" stroke-opacity="1"></use></g></g><g><g><use xlink:href="#dgVLImtYW" opacity="1" fill-opacity="0" stroke="#6f7778" stroke-width="35" stroke-opacity="1"></use></g></g><g><g><use xlink:href="#c501oMkOm" opacity="1" fill-opacity="0" stroke="#6f7778" stroke-width="35" stroke-opacity="1"></use></g></g><g><use xlink:href="#h235Gy1By0" opacity="1" fill="#6f34b9" fill-opacity="0"></use><g><use xlink:href="#h235Gy1By0" opacity="1" fill-opacity="0" stroke="#6f7778" stroke-width="35" stroke-opacity="1"></use></g></g><g><g><use xlink:href="#i4NNsr8pRf" opacity="1" fill-opacity="0" stroke="#6f7778" stroke-width="35" stroke-opacity="1"></use></g></g></g></g></svg>