<?xml version="1.0" encoding="UTF-8" standalone="no"?>
<!DOCTYPE svg PUBLIC "-//W3C//DTD SVG 1.1//EN" "http://www.w3.org/Graphics/SVG/1.1/DTD/svg11.dtd">
<svg version="1.1" xmlns="http://www.w3.org/2000/svg" xmlns:xlink="http://www.w3.org/1999/xlink" preserveAspectRatio="xMidYMid meet" viewBox="0 0 640 640" width="640" height="640"><defs><path d="M486.5 223.15L486.5 443.94L421.2 443.94L160.5 443.94L160.5 223.15L486.5 223.15Z" id="a1r5zU1Wk1"></path><path d="M234.11 443.94C233.42 382.43 232.99 343.99 232.82 328.61C232.73 320.29 234.61 312.07 238.32 304.62C239.15 302.95 235.94 309.39 236.76 307.75C240.52 300.2 245.89 293.57 252.51 288.33C253.91 287.22 247.25 292.5 248.45 291.55C255.68 285.82 264.38 282.24 273.55 281.24C275.86 280.98 270.57 281.56 273.34 281.26C281.14 280.4 289.02 280.71 296.73 282.18C298.22 282.47 297.53 282.34 300.64 282.93C302.97 283.37 305.25 284.03 307.45 284.89C310.63 286.13 309.26 285.59 310.54 286.09C318.69 289.26 325.06 295.81 328.01 304.04C329.19 307.35 327.73 303.26 328.82 306.31C332.21 315.78 333.95 325.76 333.95 335.82C333.95 339.05 333.95 339.02 333.95 343.62C333.95 346.46 337.49 347.76 339.32 345.59C342.09 342.32 343.41 340.75 345.78 337.96C350.59 332.26 356.9 328.03 363.99 325.72C368.27 324.33 364.36 325.6 367.16 324.69C378.06 321.14 390.01 324.89 396.93 334.04C398.39 335.97 395.54 332.2 398.08 335.56C402.14 340.94 405.05 347.1 406.63 353.65C407.01 355.25 406.15 351.67 406.63 353.65C407.9 358.95 408.55 364.38 408.55 369.83C408.55 379.71 408.55 404.41 408.55 443.94L234.11 443.94Z" id="avwjJ7ogI"></path></defs><g><g><g><g><use xlink:href="#a1r5zU1Wk1" opacity="1" fill-opacity="0" stroke="#1272fe" stroke-width="35" stroke-opacity="1"></use></g></g><g><g><use xlink:href="#avwjJ7ogI" opacity="1" fill-opacity="0" stroke="#1272fe" stroke-width="35" stroke-opacity="1"></use></g></g></g></g></svg>